<?xml version="1.0" encoding="utf-8"?>
<!-- Generator: Adobe Illustrator 23.0.1, SVG Export Plug-In . SVG Version: 6.00 Build 0)  -->
<svg version="1.2" baseProfile="tiny" id="Layer_1" xmlns="http://www.w3.org/2000/svg" xmlns:xlink="http://www.w3.org/1999/xlink"
	 x="0px" y="0px" viewBox="0 0 560 130.8" xml:space="preserve">
<g>
	<path fill="#8CC63F" d="M30,13c8.6,1.1,14.9,3.9,19,8.7c4.1,4.8,6.1,9.9,6.1,15.5c0,5.5-2.1,10.7-6.1,15.8c-4,5-9,8.3-14.9,9.8
		c4.8,0.9,8.7,3,11.8,6.4s4.7,7,4.7,10.8c0,2-0.6,4.2-1.8,6.8c-1.1,2.6-2.8,4.9-4.8,7.1c-2.1,2-4.6,3.7-7.5,4.9
		c-2.9,1.2-5.5,2-7.8,2.4c-2.2,0.4-6,0.6-11.5,0.6c-2.5,0-4.6-0.1-6.2-0.3l0.6-3.9c2.8,0.8,5.8,1.1,9.2,1.1
		c1.6-15.8,2.3-31.4,2.3-46.6c0-12.2-0.3-24.3-0.9-36.4C10,16.8,3.9,22.5,3.9,33c0,4.3,1.9,6.4,5.6,6.4c0.7,0,1.7-0.5,2.8-1.4
		c1.1-1,1.8-2,1.8-3c0-0.3-0.2-0.6-0.6-0.8c-0.4-0.2-0.8-0.4-1.1-0.4c-0.6,0-1.3,0.6-2,1.7c-0.6-0.2-0.8-0.8-0.8-1.9
		c0-1.7,1.1-2.7,3.3-2.7c0.7,0,1.5,0.5,2,1.4c0.5,0.9,0.8,2,0.8,3.1c0,2.2-0.6,3.9-1.9,5.3c-1.2,1.4-2.6,2-4.1,2
		c-2,0-4.1-1.2-6.3-3.6c-2.2-2.4-3.3-5-3.3-7.7c0-4.2,1.9-8,5.6-11.5s9.3-5.7,16.6-6.6c0-5.2-0.2-9.6-0.7-13.2
		c3.9,0,6.7,0.4,8.7,1.1C30.1,6.6,30.1,10.5,30,13z M29.6,61c6.3,0,10.9-2.4,13.8-7.1c2.8-4.8,4.3-9.2,4.3-13.4
		c0-6.5-1-11.4-3.1-14.8c-2.1-3.3-4-5.7-5.9-7s-4.8-2.3-8.6-3c0,6.3-0.5,17.6-1.6,33.9c-1,16.3-2.5,32.5-4.4,48.8
		c4,0.3,8.2-0.9,12.7-3.6s6.7-7.1,6.7-12.9c0-11.6-4.6-17.4-13.8-17.4V61H29.6z"/>
</g>
<g>
	<path fill="#8CC63F" d="M109.9,104.6c-3.9,1.5-7.2,3.2-9.6,4.8l-1.1-16.1c-4.4,8.3-9.5,12.5-15.7,12.5c-4.7,0-8.9-2.4-12.9-7.4
		s-5.8-10.8-5.8-17.9c0-2.9,0.6-6.1,1.9-9.6c1.2-3.5,2.7-6.4,4.4-8.5c1.7-2.2,3-4.6,4.3-7.4c1.1-2.8,1.8-5,1.8-6.6
		c0-4.9-1.6-7.4-4.8-7.4c-1.3,0-2.7,0.5-3.9,1.6s-1.9,2.4-1.9,3.9c0,1.1,0.3,2,0.9,2.8c0.6,0.8,1.3,1.2,2.1,1.2
		c0.9,0,1.5-0.1,1.7-0.4c0.2-0.2,0.3-0.6,0.3-1.1c0-1.1-0.7-1.9-2.2-2.3c0.7-1.1,1.3-1.7,1.8-1.7c0.6,0,1.1,0.4,1.7,1.1
		s0.7,1.7,0.7,2.7c0,1.5-0.5,2.9-1.5,4.2c-0.9,1.3-2,2-3.1,2c-1,0-2.1-0.7-3-2.1c-0.9-1.4-1.3-2.8-1.3-4.3c0-2.8,0.8-5.5,2.4-8.2
		c1.6-2.7,3.3-3.9,5.1-3.9c2,0,3.6,1.1,4.9,3.3c1.2,2.2,1.9,4.8,1.9,7.8c0,4.2-0.8,8.3-2.5,12.2c-3.7,8.6-5.5,15.3-5.5,20.1
		c0,7.1,1.2,12.7,3.8,16.7c2.6,4.1,6,6.1,10.4,6.1c5.3,0,9.9-4.7,13.7-14.1c-1.2-14.5-3-28.9-5.4-43.1L87.7,46l0.2-3
		c6.1-0.2,11.8-1.4,17.1-3.8l0.5,2.7l-5.3,2c0,15.5,0.6,35.6,1.9,60.7c2.5-0.7,4.8-1.7,6.9-3.1L109.9,104.6z"/>
</g>
<g>
	<path fill="#8CC63F" d="M123.9,61.6c3.6-13.6,9.1-20.5,16.3-20.5c5.2,0,9.7,2.9,13.9,8.6c4.1,5.8,6.1,12.4,6.1,20.2
		c0,8.4-1.9,16.6-5.7,24.3c-3.8,7.8-7.8,11.7-12,11.7c-1.9,0-3.6-1.1-5.4-3.2c-1.8-2.1-2.6-4.4-2.6-6.7c0-1.9,0.7-3.6,2.2-5.2
		s3-2.3,4.6-2.3c3.6,0,5.4,1.5,5.4,4.5c0,2.8-1.3,4.2-3.9,4.2c-1.2,0-1.9-0.4-2.1-1.1l0.4-0.7c0.4,0.2,0.8,0.3,1.2,0.3
		c0.7,0,1-0.8,1-2.5c0-1.8-0.7-2.8-2.1-2.8c-0.7,0-1.3,0.7-2,2.1c-0.6,1.4-0.9,2.9-0.9,4.3c0,4.4,1.5,6.5,4.5,6.5
		c6.7,0,10.1-11.8,10.1-35.6c0-5.8-1.3-11.1-3.9-16.2c-2.6-5.1-5.6-7.6-9.1-7.6c-2.9,0-5.5,1.5-7.9,4.5c-2.4,3-4.3,6.6-5.7,10.7
		c-1.3,4.1-2.1,6.4-2.1,7l-2,36.1l5.6-1.8l0.6,3.1c-3.6,1.2-6.3,1.7-8.1,1.7c-1.8,0-4.3-0.2-7.5-0.4l0.4-3.1l6.8,0.8
		c0.1-1.8,0.1-3.9,0.1-6.4c0-18.7-1.3-36.3-3.9-53.1l-5.8,1.3l-0.6-2.5c4.8-0.8,9.7-2.8,14.8-6L123.9,61.6z"/>
</g>
<g>
	<path fill="#8CC63F" d="M178.7,61.6c3.6-13.6,9.1-20.5,16.3-20.5c5.2,0,9.7,2.9,13.9,8.6c4.1,5.8,6.1,12.4,6.1,20.2
		c0,8.4-1.9,16.6-5.7,24.3c-3.8,7.8-7.8,11.7-12,11.7c-1.9,0-3.6-1.1-5.4-3.2s-2.6-4.4-2.6-6.7c0-1.9,0.7-3.6,2.2-5.2
		c1.5-1.5,3-2.3,4.6-2.3c3.6,0,5.4,1.5,5.4,4.5c0,2.8-1.3,4.2-3.9,4.2c-1.2,0-1.9-0.4-2.1-1.1l0.4-0.7c0.4,0.2,0.8,0.3,1.2,0.3
		c0.7,0,1-0.8,1-2.5c0-1.8-0.7-2.8-2.1-2.8c-0.7,0-1.3,0.7-2,2.1c-0.6,1.4-0.9,2.9-0.9,4.3c0,4.4,1.5,6.5,4.5,6.5
		c6.7,0,10.1-11.8,10.1-35.6c0-5.8-1.3-11.1-3.9-16.2c-2.6-5.1-5.6-7.6-9.1-7.6c-2.9,0-5.5,1.5-7.9,4.5s-4.3,6.6-5.7,10.7
		c-1.3,4.1-2.1,6.4-2.1,7l-2,36.1l5.6-1.8l0.6,3.1c-3.6,1.2-6.3,1.7-8.1,1.7c-1.8,0-4.3-0.2-7.5-0.4l0.4-3.1l6.8,0.8
		c0.1-1.8,0.1-3.9,0.1-6.4c0-18.7-1.3-36.3-3.9-53.1l-5.8,1.3l-0.6-2.5c4.8-0.8,9.7-2.8,14.8-6L178.7,61.6z"/>
</g>
<g>
	<path fill="#8CC63F" d="M251,41.4c0.2,0.4,0.3,0.8,0.3,1.2c0,0.8-0.3,1.6-0.9,2.4s-1.1,1.1-1.7,1.1c-1,0-2-0.8-2.8-2.2
		s-1.2-2.8-1.2-4.1c0-2.1,0.7-4.2,2.1-6.2c1.3-2,2.7-3,3.9-3c2,0,3.7,1.1,5.3,3.2c1.6,2.1,2.4,4.4,2.4,6.9c0,2.6-0.4,5.6-1.3,9.2
		c-0.8,3.6-3.1,9.9-6.5,19c-3.5,9-6,16.1-7.6,21.1c-1.6,5-2.8,10.1-3.7,15.2c-1.9,10.5-4.3,16.7-7.1,18.8c-2.8,2-5.1,3.1-6.6,3.1
		c-2.7,0-4.9-0.8-6.5-2.5c-1.7-1.7-2.5-3.6-2.5-5.8c0-2.4,0.9-4.4,2.8-6.1c1.9-1.7,4-2.6,6.4-2.6c1,0,2,0.5,2.8,1.4
		c0.8,1,1.2,2.2,1.2,3.6c0,1.2-0.5,2.3-1.7,3.3s-2.2,1.6-3.2,1.6c-0.8,0-1.2-0.5-1.2-1.4c0.4,0,0.9-0.4,1.6-1.1s0.9-1.7,0.9-2.9
		c0-1.7-0.4-2.5-1.3-2.5c-1.3,0-2.5,0.5-3.4,1.4c-0.9,0.9-1.3,2.1-1.3,3.6c0,2,0.6,3.9,1.9,5.6c1.2,1.7,2.7,2.5,4.3,2.5
		c1.8,0,3.5-1.9,5.4-5.6c1.9-3.7,3.2-7.6,4.1-11.5c0.8-3.9,2.3-9.4,4.4-16.4c-6.2-23.3-12.3-39.7-18.3-49.4
		c-1.6,0.5-3.9,1.6-7.3,3.1l-0.5-2.7c3.5-1.1,8.2-3.4,13.9-7c1.9,3.2,3.6,7.4,5.2,12.7s3.1,11.2,4.6,18l4.3,20.1l8.1-21.5
		c2.3-6,3.7-10.6,4.5-14c0.7-3.3,1.1-6.1,1.1-8.3c0-2.2-0.5-3.9-1.6-5.3s-2.4-2-4.1-2c-0.8,0-1.5,0.3-2,0.8c-0.5,0.5-0.8,1.3-0.8,2
		c0,2.7,0.5,4.1,1.7,4.1C249.2,42.3,250,42,251,41.4z"/>
</g>
<g>
	<path fill="#8CC63F" d="M268.8,27.4c-0.7,1.4-1.6,2-2.7,2c-0.7,0-1.5-0.5-2-1.5c-0.5-1.1-0.8-2-0.8-3c0-1.1,0.5-2.2,1.7-3.3
		s2.2-1.5,3.3-1.5c1,0,2.1,1,3.1,2.9c1,2,1.6,3.9,1.6,5.8c0,4.8-2.2,9.5-6.6,14.2c0-1-0.3-2-0.9-2.8c3.3-1.7,5-4.5,5-8.6
		C270.3,29.2,269.8,27.8,268.8,27.4z"/>
</g>
<g>
	<path fill="#8CC63F" d="M289.9,94.8c-1.5-1.9-2.8-2.8-3.8-2.8c-0.6,0-1.3,0.6-2.2,1.8c-0.8,1.2-1.2,2.2-1.2,3c0,2.3,1,4.3,3,6.3
		c2,2,4.5,3,7.6,3c1.5,0,3-1.2,4.7-3.6c1.7-2.4,2.5-4.9,2.5-7.7c0-2.4-0.6-4.9-2-7.5c-1.3-2.7-5.1-7.3-11.2-13.9
		c-2.7-2.8-4.5-5.2-5.5-7.1c-1-1.9-1.9-4-2.4-6.4c-0.5-2.4-0.8-4.9-0.8-7.3c0-4.4,1.3-8.4,4-12.2c2.7-3.7,5.9-5.6,9.9-5.6
		c3,0,5.7,1,8,2.9c2.3,2,3.4,4.6,3.4,8c0,2.7-0.8,5.3-2.4,7.7c-1.6,2.4-3.3,3.5-5.4,3.5c-1.7,0-3-1.1-4-3.3
		c-1.1-2.2-1.7-4.2-1.7-6.3c0-2.5,1-3.8,3.2-3.8c0.7,0,1.3,0.2,1.9,0.5c-0.1,0.2-0.2,0.5-0.4,0.8c-1.2,1.8-1.9,3.5-1.9,5
		c0,1.1,0.6,2,1.9,2.7c1.2,0.7,2.3,1,3.1,1c0.7,0,1.3-0.5,1.9-1.4c0.5-1,0.8-1.9,0.8-2.8c0-3.1-0.8-5.8-2.6-8.3
		c-1.7-2.4-3.7-3.6-6.1-3.6c-2.2,0-4,1.1-5.5,3.4c-1.5,2.3-2.2,4.7-2.2,7.2c0,8.9,3.1,16.5,9.2,22.6c6.5,6.7,9.7,13.2,9.7,19.6
		c0,3.7-0.6,7-1.8,9.7s-2.6,4.9-4.3,6.7c-1.7,1.7-3,2.8-3.9,3.2c-0.9,0.4-2.5,0.6-4.5,0.6c-2.2,0-4-1.4-5.6-4.2
		c-1.6-2.8-2.3-5.8-2.3-9.1c0-2.4,0.6-4.4,2-6.3s2.7-2.8,4.1-2.8c1,0,2,0.4,2.7,1.1c0.7,0.8,1.1,1.7,1.1,2.7
		C290.7,92.7,290.5,93.8,289.9,94.8z"/>
</g>
<g>
	<path fill="#8CC63F" d="M389.3,53.5c-1.5-14.2-2.1-24-2.1-29.4c0-6.4,1.3-11.5,4-15.6c2.7-4.1,6.1-6.1,10.1-6.1
		c2.7,0,5.1,1.4,7.2,4.1c2.1,2.7,3.1,5.9,3.1,9.6c0,2-0.8,3.9-2.6,6c-1.8,2-3.4,3.1-5.2,3.1c-1.3,0-2.8-0.7-4.1-2
		c-1.3-1.4-2.1-2.6-2.1-3.7c0-1.4,0.5-2.7,1.6-4c1-1.3,2-2,2.8-2c1.2,0,2,0.2,2.3,0.7c0.3,0.5,0.4,1,0.4,1.7c0,0.6-0.2,1.4-0.6,2.5
		c-0.8-1.7-1.6-2.5-2.3-2.5c-0.6,0-0.9,0.9-0.9,2.8c0,1.3,0.3,2.5,1,3.4c0.7,1,1.3,1.4,1.9,1.4c0.8,0,1.6-1.1,2.3-3.3
		c0.7-2.2,1.1-4.5,1.1-6.7c0-1.9-0.5-3.8-1.6-5.7c-1-1.9-2.4-2.8-4-2.8c-2.3,0-4.1,2.3-5.6,6.7c-1.5,4.5-2.2,9.9-2.2,15.9
		c0,6.9,0.5,18.1,1.5,33.7c1,15.6,2.2,28.7,3.4,39c2.4,0,5.4-1,9-3l0.8,3.8c-4.4,1.4-7.9,2.4-10.6,2.8s-6.1,1.7-10.3,3.8l-0.2-4.5
		l8.4-2.4c-3.6-22.8-5.6-37.5-6-43.7c-5.2,2.3-10.8,4.1-16.8,5.5c-6,1.4-11,2.1-14.9,2.1c0,22.2-0.2,36.2-0.7,42
		c-0.5,5.8-1.7,10.8-3.4,15.1c-1.9,4.2-4.5,6.4-7.8,6.4c-1.8,0-3.5-1-5.3-3c-1.8-2-2.6-4.5-2.6-7.7c0-1.7,0.9-3.4,2.7-5.2
		c1.9-1.8,3.4-2.7,4.8-2.7c1.8,0,3.1,0.6,4,1.8c0.9,1.2,1.5,2.6,1.5,4c0,1.1-0.3,2-0.9,2.9s-1.3,1.3-2.1,1.3c-1.2,0-2-1.1-2.3-3.2
		l0.5-0.5c0.6,0.8,1,1.2,1.2,1.2c0.7,0,1-0.8,1-2.4c0-0.7-0.2-1.4-0.7-2.1c-0.5-0.7-0.9-1.1-1.5-1.1c-0.8,0-1.7,0.6-2.3,1.7
		c-0.7,1.2-1,2.5-1,3.9c0,2.2,0.3,4.2,0.9,5.8s1.5,2.4,2.5,2.4c2.8,0,4.9-2,6.3-6.2c1.5-4.2,2.2-10,2.2-17.4
		c0-10.8-0.7-23.8-2.3-39.2c-1.6-15.4-3.4-30-5.8-44c-0.5,0.1-1,0.2-1.8,0.2c-1.5,0-3.1-0.2-5.1-0.5v-3.2
		c11.2,0.3,19.3-0.2,24.1-1.7v3.6c-3.1,0.4-5.7,0.8-7.7,1.1c0.8,20.3,1.2,34.4,1.2,42.2c1.9,0.2,3.4,0.2,4.9,0.2c4,0,8-0.5,11.9-1.7
		C378.5,57.7,383.4,56,389.3,53.5z"/>
</g>
<g>
	<path fill="#8CC63F" d="M434.8,58.2c-0.5,1.1-1,1.6-1.8,1.6c-0.4,0-0.8-0.3-1.2-0.8c-0.4-0.6-0.5-1.3-0.5-2.2c0-1.1,0.4-2,1.1-2.7
		s1.6-1.1,2.5-1.1c1,0,2,0.5,2.8,1.7c0.8,1.1,1.3,2.3,1.3,3.5c0,3-0.6,5.2-1.9,7c-1.2,1.7-2.8,2.6-4.8,2.6c-1.5,0-2.6-1-3.6-2.9
		c-1-2-1.6-4.3-1.6-7.1c0-3.3,1-6.3,3.2-9s4.4-4.1,6.6-4.1c4.7,0,8.9,2.7,12.8,8.2c3.8,5.5,5.8,11.7,5.8,18.6c0,8.6-2.2,16.2-6.6,23
		c-4.5,6.8-9.2,10.2-14.2,10.2c-5.8,0-11-3.1-15.6-9.2c-4.6-6.2-6.9-13.5-6.9-21.8c0-7.1,2.1-13.8,6.3-20.2
		c4.3-6.4,9.2-10.5,15-12.2l0.6,1.7c-4.5,1.1-8.1,4.4-11,10.2c-2.9,5.7-4.4,11.9-4.4,18.7c0,9.2,1.5,16.6,4.4,22.4
		c2.9,5.8,6.6,8.6,11.4,8.6c3.6,0,6.8-2.9,10-8.7c3-5.8,4.6-12.6,4.6-20.3c0-7.4-1.3-13.6-3.9-18.7c-2.6-5.1-5.8-7.6-9.5-7.6
		c-2.1,0-3.7,1.1-5.1,3.2c-1.3,2.1-2,4.5-2,7c0,1.6,0.5,3,1.5,4.2c0.9,1.1,1.9,1.7,2.7,1.7c1.1,0,2.2-0.5,3.3-1.7s1.7-2.2,1.7-3.3
		c0-2.2-0.9-3.3-2.9-3.3c-0.8,0-1.2,0.6-1.2,1.7C433.4,57.1,433.9,57.6,434.8,58.2z"/>
</g>
<g>
	<path fill="#8CC63F" d="M491,38.3c-2.8,0.7-5.2,1.2-7.1,1.4c-1.9,0.3-4.6,1.2-8,2.7c-0.2,3-1.1,10.1-3,21.5
		c-1.9,11.4-2.8,19.2-2.8,23.2c0,5.2,0.8,9.2,2.4,12c1.6,2.8,3.8,4.2,6.8,4.2c2.2,0,3.7-1.3,5-3.8c1.2-2.5,1.8-5.8,1.8-9.9
		c0-1.5-0.4-3.2-1.2-4.8c-0.8-1.7-1.8-2.5-2.7-2.5s-1.7,0.6-2.2,1.7s-0.8,2.5-0.8,3.9c0,1.3,0.4,2,1.3,2s1.6-1,2-3l0.6,0.5
		c0,1.4-0.3,2.6-0.9,3.5c-0.6,0.9-1.2,1.4-2,1.4c-1.1,0-2.2-0.5-3.2-1.4c-1-1-1.6-2.2-1.6-3.7c0-2,0.6-3.7,2-5.2
		c1.2-1.5,2.7-2.3,4.1-2.3c1.9,0,3.7,0.8,5.7,2.6c1.9,1.7,2.8,3.6,2.8,5.5c0,4.3-1,8.3-3,12c-2,3.6-4.4,5.5-6.9,5.5
		c-4,0-7.2-1.7-9.5-4.9c-2.4-3.3-3.5-7.7-3.5-13.1c0-2.7,0.4-9.9,1.2-21.8c0.8-11.8,1.1-18.7,1.1-20.5l-9.5,3.6v-3.8l9.5-3
		c0.1-1.4,0.1-3,0.1-4.8c0-5.5-0.3-10.7-0.8-15.8l8.9-2c0.1,5.7-0.3,12.3-1.2,19.8c4.4-1.8,7.3-3,8.7-3.3c1.6-0.4,3.3-1,5.3-1.7
		L491,38.3z"/>
</g>
<g>
	<path fill="#8CC63F" d="M520.6,89.5c1.7,0,2.4,1.1,2.4,3.1c0,1.3-0.4,2.4-1.3,3.4c-0.8,0.9-1.8,1.4-2.5,1.4c-1,0-2.1-0.6-3.1-1.9
		s-1.6-2.9-1.6-4.7c0-2.6,0.6-4.6,1.9-6.1s2.9-2.2,4.8-2.2c2.3,0,4.1,1.1,5.7,3.2s2.3,4.9,2.3,8.1c0,3.9-1.2,7-3.8,9.2
		c-2.6,2.3-5.4,3.4-8.4,3.4c-5.6,0-10.8-3-15.6-9.2c-4.8-6.1-7.2-13.6-7.2-22.4c0-8.3,2.3-15.8,6.9-22.5c4.7-6.7,9.6-10.2,14.8-10.2
		c3.9,0,7.6,1.7,10.9,5.2s5.1,7.1,5.1,10.8c0,4.6-1.5,8.5-4.4,11.4c-2.9,3-6.5,4.5-10.8,4.5s-7.5-0.8-9.7-2.4
		c-2.3-1.5-3.4-3.7-3.4-6.5c0-2.5,0.7-4.5,2.1-6.1c1.5-1.6,2.9-2.4,4.5-2.4c1.3,0,2.6,0.5,3.7,1.4c1.1,0.9,1.7,2,1.7,3.3
		c0,1.4-0.4,2.7-1.1,3.9c-0.7,1.2-1.6,1.7-2.3,1.7c-1.5,0-2.1-0.7-2.1-2c1.7-0.6,2.4-1.6,2.4-3c0-1.1-0.3-2-0.9-2.7
		c-0.6-0.7-1.3-1-2.2-1c-0.6,0-1.2,0.7-1.8,2c-0.5,1.4-0.8,2.7-0.8,4.2c0,2,1,3.7,3.2,5.2c2.2,1.4,4.8,2.1,7.8,2.1
		c2.6,0,4.7-1.1,6.1-3.2s2.2-4.9,2.2-8.5c0-3.7-1-7.2-3.1-10.6s-4.7-5.1-7.8-5.1c-3.8,0-7.1,2.8-9.7,8.5s-4,13.4-4,23.1
		c0,8,1.6,14.7,4.7,19.9s6.8,7.9,11.4,7.9c2.1,0,4.1-1,6.3-2.9c2.1-2,3.1-4.4,3.1-7.4c0-2-0.7-3.7-2.2-5.2c-1.5-1.4-3.1-2.1-4.9-2.1
		c-0.9,0-1.8,0.4-2.5,1.2s-1,1.8-1,3c0,2,0.8,3,2.6,3c0.5,0,0.9-0.5,1.2-1.3C520.4,91.4,520.6,90.4,520.6,89.5z"/>
</g>
<g>
	<path fill="#8CC63F" d="M553.5,90.9c-0.5,3.1-1.5,4.6-2.9,4.6c-2.3,0-3.4-1.6-3.4-4.8c0-2.4,0.7-4.3,2.2-6.1
		c1.5-1.7,3.1-2.6,4.9-2.6c1.6,0,2.9,0.9,4,2.8c1.1,1.9,1.8,4,1.8,6.4c0,4.5-1.7,8.5-5.1,11.8c-3.4,3.3-6.7,4.9-10,4.9
		c-1.3,0-2.7-0.9-4-2.7c-1.3-1.8-2.1-3.9-2.1-6.4c0-5.7,0.6-13.3,1.9-22.9s2.2-19.1,2.7-28.7s0.8-23.4,0.8-41.5l-6.3,0.3l0.1-2.4
		c6.4,0,12.9-1.2,19.1-3.7v2.4l-4.4,1.8c-2.1,22.6-3.6,37.8-4.7,45.8c-0.9,7.9-2.5,16.7-4.5,26.4c-2,9.7-3,16.3-3,19.9
		c0,1.9,0.5,3.9,1.7,6.1s2.3,3.2,3.5,3.2c2.9,0,5.4-1.2,7.5-3.6s3.1-5.6,3.1-9.6c0-1.4-0.3-2.8-1-3.9c-0.7-1.2-1.6-1.7-2.6-1.7
		c-2.7,0-4.1,1.4-4.1,4.3c0,1.1,0.5,1.6,1.5,1.6c1,0,2-0.6,2.8-1.8L553.5,90.9z"/>
</g>
<g>
	<path fill="#8CC63F" d="M353.3,21.8c5.6,0.3,10.3-0.8,15.7-3c6.9-2.8,13.7-2.7,20.8-2.2c3.1,0.2,3.1-6.2,0-6.4
		c-5.9-0.5-11.9-0.8-17.7,0.8c-6.5,1.8-11.8,4.8-18.7,4.3C350.2,15.2,350.2,21.6,353.3,21.8L353.3,21.8z"/>
</g>
<g>
	<path fill="#8CC63F" d="M357.6,108.1c5.6,0.3,10.3-0.8,15.7-3c6.9-2.8,13.7-2.7,20.8-2.2c3.1,0.2,3.1-6.2,0-6.4
		c-5.9-0.5-11.9-0.8-17.7,0.8c-6.5,1.8-11.8,4.8-18.7,4.3C354.5,101.5,354.5,108,357.6,108.1L357.6,108.1z"/>
</g>
<g>
	<path fill="#8CC63F" d="M388,109.3c3.1,0,3.1-6.4,0-6.4S384.9,109.3,388,109.3L388,109.3z"/>
</g>
<g>
	<path fill="#FFFFFF" d="M360.7,114.7c5.6,0.3,10.3-0.8,15.7-3c6.9-2.8,13.7-2.7,20.8-2.2c3.1,0.2,3.1-6.2,0-6.4
		c-5.9-0.5-11.9-0.8-17.7,0.8c-6.5,1.8-11.8,4.8-18.7,4.3C357.6,108,357.6,114.6,360.7,114.7L360.7,114.7z"/>
</g>
<g>
	<path fill="#FFFFFF" d="M421.9,122.5c3.1,0,3.1-6.4,0-6.4C418.7,116,418.7,122.5,421.9,122.5L421.9,122.5z"/>
</g>
<g>
	<path fill="#FFFFFF" d="M404.3,115c3.1,0,3.1-6.4,0-6.4C401.2,108.6,401.2,115,404.3,115L404.3,115z"/>
</g>
<g>
	<path fill="#FFFFFF" d="M403.1,114.6c4.3,2.4,8.3,5.4,12.1,8.6c2.7,2.3,5.1-3.3,2.5-5.6c-3.8-3.3-7.9-6.2-12.1-8.6
		C402.7,107.3,400.2,112.9,403.1,114.6L403.1,114.6z"/>
</g>
<g>
	<path fill="#FFFFFF" d="M417.8,124.5c3.1,0,3.1-6.4,0-6.4C414.6,118,414.6,124.5,417.8,124.5L417.8,124.5z"/>
</g>
<g>
	<path fill="#FFFFFF" d="M418,118c-2.7,0-5.4,0-8,0c-3.1,0-3.1,6.4,0,6.4c2.7,0,5.4,0,8,0C421.1,124.5,421.1,118,418,118L418,118z"
		/>
</g>
<g>
	<path fill="#FFFFFF" d="M422.8,117.2c-1.9,2.7-3.3,5.9-4,9.6c-0.8,4,3.8,5.8,4.7,1.7c0.5-2.5,1.5-4.8,2.8-6.7
		C428.3,118.7,424.8,114.1,422.8,117.2L422.8,117.2z"/>
</g>
<g>
	<path fill="#FFFFFF" d="M395.6,110.2c3.1,0,3.1-6.4,0-6.4C392.5,103.6,392.5,110.2,395.6,110.2L395.6,110.2z"/>
</g>
<g>
	<path fill="#FFFFFF" d="M409.1,115c3.1,0,3.1-6.4,0-6.4C406,108.6,406,115,409.1,115L409.1,115z"/>
</g>
<g>
	<path fill="#FFFFFF" d="M386.6,107.2c0.2,1.4,0.5,2.7,1.1,3.9c0.6,1.5,2.2,2,3.3,1.1c1.1-0.9,1.6-2.9,0.8-4.4
		c-0.3-0.8-0.5-1.4-0.6-2.4c-0.2-1.7-1.9-2.7-3-2.3C386.9,103.7,386.4,105.5,386.6,107.2L386.6,107.2z"/>
</g>
<g>
	<path fill="#FFFFFF" d="M406.1,114.2c3.1,0,3.1-6.4,0-6.4C403,107.7,402.9,114.2,406.1,114.2L406.1,114.2z"/>
</g>
<g>
	<path fill="#FFFFFF" d="M417.4,122.2c3.1,0,3.1-6.4,0-6.4C414.2,115.7,414.2,122.2,417.4,122.2L417.4,122.2z"/>
</g>
<g>
	<path fill="#FFFFFF" d="M398.9,110.2c3.1,0,3.1-6.4,0-6.4C395.7,103.6,395.7,110.2,398.9,110.2L398.9,110.2z"/>
</g>
<g>
	<path fill="#FFFFFF" d="M398.4,110.2c3.1,0,3.1-6.4,0-6.4S395.3,110.2,398.4,110.2L398.4,110.2z"/>
</g>
<g>
	<path fill="#FFFFFF" d="M398,109.9c1.2,0,2.5,0,3.7,0s2.5-1.5,2.5-3.3c-0.1-1.7-1-3.3-2.5-3.3c-1.2,0-2.5,0-3.7,0s-2.5,1.5-2.5,3.3
		C395.6,108.3,396.6,109.9,398,109.9L398,109.9z"/>
</g>
<g>
	<path fill="#8CC63F" d="M371.7,14.6c-0.4,16.4-0.3,32.8,0.3,49.1c0.5,12.4,0.8,24,4.6,35.5c0.9,2.9,4.1,0.4,3.1-2.4
		c-4.3-12.7-3.9-27.4-4.4-41.2c-0.4-13.6-0.4-27.3,0-40.9C375.5,11.4,371.8,11.4,371.7,14.6L371.7,14.6z"/>
</g>
<g>
</g>
<g>
</g>
<g>
</g>
<g>
</g>
<g>
</g>
</svg>
